<svg id="proteinDrawer" viewBox="0 0 587 120" width="587" height="100%" background="#ff0000" xmlns="http://www.w3.org/2000/svg"><desc>Created with Snap</desc><defs><linearGradient x1="0" y1="0" x2="1" y2="0" id="linearGradientSkpd8dfecl"><stop offset="0%" stop-color="#ffffff"></stop><stop offset="100%" stop-color="#00007f"></stop></linearGradient><linearGradient x1="0" y1="0" x2="1" y2="0" id="linearGradientSkpd8dfecn"><stop offset="0%" stop-color="#00007f"></stop><stop offset="100%" stop-color="#ffffff"></stop></linearGradient><linearGradient x1="0" y1="0" x2="1" y2="0" id="linearGradientSkpd8dfecw"><stop offset="0%" stop-color="#ffffff"></stop><stop offset="100%" stop-color="#00006d"></stop></linearGradient><linearGradient x1="0" y1="0" x2="1" y2="0" id="linearGradientSkpd8dfecy"><stop offset="0%" stop-color="#00006d"></stop><stop offset="100%" stop-color="#ffffff"></stop></linearGradient></defs><defs><filter id="glow" x="-20%" y="-20%" width="150%" height="150%"><feGaussianBlur stdDeviation="3 3" result="glow"></feGaussianBlur><feMerge><feMergeNode in="glow"></feMergeNode><feMergeNode in="glow"></feMergeNode><feMergeNode in="glow"></feMergeNode></feMerge></filter><style type="text/css"> text { font-family: arial; font-weight:bold; } </style></defs><g id="protein" transform="matrix(1,0,0,1,0,10)"><rect x="0" y="33" width="487" height="6" fill="#bbbbbb" style=""></rect><g id="B-0-0" style="cursor:pointer"><rect x="1" y="0" width="13" height="72" fill="none" style=""></rect></g><g id="B-0-1" style="cursor:pointer"><rect x="15" y="0" width="21" height="72" fill="none" style=""></rect><rect x="15" y="31" width="21" height="10" fill="#ff00ff" style=""></rect></g><g id="B-0-2" style="cursor:pointer"><rect x="37" y="0" width="51" height="72" fill="none" style=""></rect></g><g id="B-0-3" style="cursor:pointer" transform="matrix(1,0,0,1,0,0)"><rect x="89" y="0" width="13" height="72" fill="none" style=""></rect><rect x="89" y="31" width="13" height="10" fill="#ff00ff" style=""></rect></g><g id="B-0-4" style="cursor:pointer"><rect x="103" y="0" width="46" height="72" fill="none" style=""></rect></g><g id="B-0-5" style="cursor:pointer" transform="matrix(1,0,0,1,0,0)"><rect x="150" y="0" width="16" height="72" fill="none" style=""></rect><rect x="150" y="31" width="16" height="10" fill="#ff00ff" style=""></rect></g><g id="B-0-6" style="cursor:pointer"><rect x="167" y="0" width="8" height="72" fill="none" style=""></rect></g><g id="B-0-7" style="cursor:pointer" transform="matrix(1,0,0,1,0,0)"><path d="M176,24 L303.5, 0 431,24 380,72 227,72Z" fill="url('#linearGradientSkpd8dfecl')" stroke="#00007f" style="stroke-width: 0.5;"></path><path d="M176,24 L303.5, 0 431,24 380,72 227,72Z" fill="url('#linearGradientSkpd8dfecn')" stroke="none" style="stroke-width: 0.5;" transform="matrix(0.9725,0,0,0.9028,8.3314,3.5)"></path><text x="303.5" y="42.666666666666664" fill="#ffffff" style="filter: url(&quot;#glow&quot;); text-anchor: middle; font-size: 20px;">S_TKc</text><text x="303.5" y="42.666666666666664" fill="#ff0000" style="text-anchor: middle; font-size: 20px;">S_TKc</text></g><g id="B-0-8" style="cursor:pointer" transform="matrix(1,0,0,1,0,0)"><rect x="432" y="0" width="55" height="72" fill="url('#linearGradientSkpd8dfecw')" stroke="#00006d" style="stroke-width: 0.5;"></rect><rect x="432" y="0" width="55" height="72" fill="url('#linearGradientSkpd8dfecy')" stroke="none" style="stroke-width: 0.5;" transform="matrix(0.8727,0,0,0.9028,58.4818,3.5)"></rect><text x="459.5" y="39.666666666666664" fill="#ffffff" style="filter: url(&quot;#glow&quot;); text-anchor: middle; font-size: 11px;">S_TK_X</text><text x="459.5" y="39.666666666666664" fill="#000000" style="text-anchor: middle; font-size: 11px;">S_TK_X</text></g><line x1="0" x2="487" y1="100" y2="100" stroke="#dddddd" style="stroke-width: 0.1;"></line><line x1="0" x2="0" y1="100" y2="104" stroke="#333333" style="stroke-width: 0.5;"></line><text x="1" y="108" style="font-weight: normal; font-size: 8px; color: rgb(51, 51, 51);">0</text><line x1="50" x2="50" y1="100" y2="102" stroke="#888888" style="stroke-width: 0.1;"></line><line x1="100" x2="100" y1="100" y2="104" stroke="#333333" style="stroke-width: 0.5;"></line><text x="101" y="108" style="font-weight: normal; font-size: 8px; color: rgb(51, 51, 51);">100</text><line x1="150" x2="150" y1="100" y2="102" stroke="#888888" style="stroke-width: 0.1;"></line><line x1="200" x2="200" y1="100" y2="104" stroke="#333333" style="stroke-width: 0.5;"></line><text x="201" y="108" style="font-weight: normal; font-size: 8px; color: rgb(51, 51, 51);">200</text><line x1="250" x2="250" y1="100" y2="102" stroke="#888888" style="stroke-width: 0.1;"></line><line x1="300" x2="300" y1="100" y2="104" stroke="#333333" style="stroke-width: 0.5;"></line><text x="301" y="108" style="font-weight: normal; font-size: 8px; color: rgb(51, 51, 51);">300</text><line x1="350" x2="350" y1="100" y2="102" stroke="#888888" style="stroke-width: 0.1;"></line><line x1="400" x2="400" y1="100" y2="104" stroke="#333333" style="stroke-width: 0.5;"></line><text x="401" y="108" style="font-weight: normal; font-size: 8px; color: rgb(51, 51, 51);">400</text><line x1="450" x2="450" y1="100" y2="102" stroke="#888888" style="stroke-width: 0.1;"></line><rect x="0" y="90" width="487" height="110" fill="none" style="cursor: pointer;"></rect></g><g id="markGrp"></g><g id="hlGrp"></g></svg>